<svg width="802" height="243" viewBox="0 0 802 243" fill="none" xmlns="http://www.w3.org/2000/svg">
<path d="M157.972 190.371V125.151C157.972 105.846 151.915 96.1927 139.803 96.1927C125.334 96.1927 117.764 106.685 117.091 127.669V190.371H78.986V125.151C78.986 105.846 72.9295 96.1927 60.8167 96.1927C53.7508 96.1927 48.1991 98.9627 44.1615 104.503C40.1239 109.875 38.105 118.101 38.105 129.18V190.371H0V64.4643H38.105V77.3067C46.1803 66.8984 56.9473 61.6943 70.406 61.6943C88.0706 61.6943 101.025 69.0808 109.268 83.8539C112.969 76.6352 118.521 71.1793 125.923 67.486C133.326 63.6249 140.728 61.6943 148.13 61.6943C163.44 61.6943 175.216 66.7306 183.459 76.8031C191.871 86.8756 196.077 100.809 196.077 118.604V190.371H157.972Z" fill="black"/>
<path d="M331.219 174.255C318.265 186.846 302.619 193.141 284.282 193.141C265.944 193.141 250.298 186.846 237.344 174.255C224.39 161.496 217.913 145.884 217.913 127.418C217.913 108.951 224.39 93.4228 237.344 80.8321C250.298 68.0736 265.944 61.6943 284.282 61.6943C302.619 61.6943 318.265 68.0736 331.219 80.8321C344.173 93.4228 350.65 108.951 350.65 127.418C350.65 145.884 344.173 161.496 331.219 174.255ZM264.094 149.325C269.477 154.865 276.206 157.635 284.282 157.635C292.357 157.635 299.002 154.865 304.217 149.325C309.601 143.785 312.293 136.483 312.293 127.418C312.293 118.352 309.601 111.05 304.217 105.51C299.002 99.97 292.357 97.2 284.282 97.2C276.206 97.2 269.477 99.97 264.094 105.51C258.878 111.05 256.271 118.352 256.271 127.418C256.271 136.483 258.878 143.785 264.094 149.325ZM284.282 0L329.2 24.4259V54.1399L284.282 29.714L239.363 54.1399V24.4259L284.282 0Z" fill="black"/>
<path d="M374.091 190.371V64.4643H412.196V77.3067C419.43 66.8984 431.122 61.6943 447.273 61.6943C462.582 61.6943 474.527 66.8145 483.107 77.0549C491.855 87.2953 496.229 100.809 496.229 117.597V190.371H458.124V124.144C458.124 105.51 451.311 96.1927 437.684 96.1927C430.113 96.1927 423.973 98.9627 419.262 104.503C414.551 110.042 412.196 118.268 412.196 129.18V190.371H374.091Z" fill="black"/>
<path d="M585.199 193.141C565.684 193.141 549.617 186.93 537 174.507C524.55 162.084 518.326 146.304 518.326 127.166C518.326 108.364 524.634 92.7513 537.252 80.3285C550.038 67.9057 566.02 61.6943 585.199 61.6943C594.452 61.6943 603.116 63.2891 611.191 66.4788C619.434 69.6684 626.668 74.285 632.893 80.3285C639.286 86.372 644.249 94.1782 647.782 103.747C651.315 113.316 652.913 124.144 652.576 136.231H555.421C556.094 143.114 559.122 148.906 564.506 153.606C569.889 158.139 577.46 160.405 587.218 160.405C592.769 160.405 597.816 159.314 602.359 157.132C606.901 154.781 609.929 151.927 611.443 148.57H651.315C647.277 161.832 639.202 172.576 627.089 180.802C614.976 189.028 601.013 193.141 585.199 193.141ZM584.189 91.9119C576.955 91.9119 570.899 93.7585 566.02 97.4518C561.309 101.145 558.113 106.013 556.431 112.057H610.434C608.583 105.174 605.134 100.138 600.087 96.9482C595.209 93.5907 589.909 91.9119 584.189 91.9119Z" fill="black"/>
<path d="M723.519 243H682.385L708.63 183.068L656.141 64.4643H697.779L729.07 142.275L760.11 64.4643H802L723.519 243Z" fill="black"/>
<circle cx="284" cy="127" r="68" fill="#FFC431"/>
</svg>
